<svg xmlns="http://www.w3.org/2000/svg" width="3774" height="4894">
  <path fill="#2C4D7C" fill-rule="evenodd" d="M198.1 0H3575c109.905 0 199 89.096 199 199v4495.1c0 110.804-89.095 199-199 199H198.1c-109.005 0-198.1-88.196-198.1-199V199C0 89.096 89.095 0 198.1 0Z"/>
  <path fill="#1F294D" fill-rule="evenodd" d="M199 50.009h3372.999c81.739 0 147.101 66.262 147.101 148v4496.998c0 81.738-65.362 148-147.101 148H199c-81.738 0-148-66.262-148-148V198.009c0-81.738 66.262-148 148-148Z"/>
  <path fill="#7CC8EC" fill-rule="evenodd" d="M1888 301.1c869.848 0 1575 706.723 1575 1577.4 0 870.677-705.152 1575.6-1575 1575.6S312.1 2749.177 312.1 1878.5c0-870.677 706.052-1577.4 1575.9-1577.4Z"/>
  <path fill="#FFF" fill-rule="evenodd" d="M3093.089 863.409c4.302 93.569 5.24 544.901-347.089 870.691-266.854 248.336-655.294 284.9-863.9 284.9-192.726 0-503.637 31.493-771.1 293.1-241.112 237.543-314.323 569.423-333.207 684.602a1585.365 1585.365 0 0 1-91.551-99.162c5.523-156.602 51.017-574.367 366.423-866.778 266.951-247.489 640.664-285.662 829.435-281.662 157.307 0 544.973-44.249 770-279 300.783-309.5 344.142-663.138 348.485-707.45a1585.574 1585.574 0 0 1 92.504 100.759ZM901.722 3995.867h122.271c51.59 0 67.068-5.159 67.068-51.591h114.531v35.082c0 62.941-22.7 112.468-137.747 112.468H883.149c-103.181 0-164.575-25.795-164.575-135.168v-111.436c0-109.373 61.394-135.169 164.575-135.169h134.653c163.027 0 184.179 35.082 183.147 140.844h-114.532v-10.319c0-26.827-19.604-34.566-53.654-34.566h-124.85c-60.361 0-71.711 28.375-71.711 74.807v40.241c0 54.171 11.35 74.807 65.52 74.807Zm-372.975 91.832H414.215v-280.655H253.252v-92.863h436.459v92.863H528.747v280.655ZM3524.721 3976.493v31.885c0 49.886-32.914 87.942-111.599 87.942h-39.086c-60.685 0-113.142-19.028-113.142-91.542v-103.885h-49.371v-70.971h49.371v-61.714h98.742v61.714h153.257v70.971h-153.257v100.799c0 19.543 14.4 23.657 38.057 23.657 31.886 0 40.629-7.199 40.629-31.371v-17.485h86.399Zm-447.915 67.371h-1.028c-10.8 32.399-35.486 52.456-95.142 52.456h-28.8c-124.971 0-140.399-44.742-140.399-111.599v-47.314c0-66.857 15.428-111.599 140.399-111.599h29.314c40.628 0 82.285 11.314 88.456 52.457h1.029v-158.399h98.742v372.34h-92.571v-48.342Zm0-95.657c0-39.6-20.571-48.342-59.656-48.342h-58.114c-47.314 0-51.943 16.457-51.943 45.771v30.857c0 29.314 4.629 45.771 51.943 45.771h58.114c39.085 0 59.656-8.743 59.656-48.343v-25.714Zm-398.033 4.114c0-33.428-7.715-49.371-47.314-49.371-33.943 0-57.6 12.857-57.6 44.229v145.027h-98.742v-262.284h92.571v49.886h1.028c11.314-41.657 51.428-54 96.171-54 72 0 100.285 30.857 100.285 103.371 0 6.685-.514 13.885-1.028 23.142h-85.371Zm-360.488 110.057c-27.257 28.285-37.543 33.942-86.914 33.942H2163.1c-59.271.515-97.842-12.857-97.842-74.57v-21.6c0-71.486 49.371-75.6 145.027-75.6 54 0 83.828 1.543 102.857 21.086v-23.143c0-25.714-7.714-34.971-46.286-34.971h-58.114c-28.799 0-37.028 2.571-38.056 21.085h-95.657c0-70.971 34.971-82.799 118.285-82.799h114.685c67.885 0 103.885 32.4 103.885 94.114v172.284h-93.599v-29.828Zm-63.257-82.285h-43.714c-41.657 0-50.4 9.257-50.4 30.857 0 16.971 13.371 23.657 51.943 23.657h28.285c67.886 0 74.057-10.286 74.057-27.772 0-19.542-5.657-26.742-60.171-26.742Zm-359.965-28.8h-240.684v140.913h-114.171v-372.34h114.171v132.685h240.684v-132.685h114.171v372.34h-114.171v-140.913ZM2530.449 4577.172v-37.259h34.684v37.259h-34.684Zm-145.494 0-66.036-206.741h40.742l38.774 117.078c3.635 11.207 9.035 29.988 16.206 56.342h1.06l3.938-14.086c4.846-17.569 8.985-31.602 12.419-42.105l38.319-117.229h41.5l-66.642 206.741h-60.28Zm-119.293-37.259h34.684v37.259h-34.684v-37.259Zm-95.059 38.925c-28.777 0-47.61-4.896-56.494-14.691-8.886-9.793-13.328-30.543-13.328-62.25 0-28.171 4.643-47.104 13.934-56.797 9.289-9.693 27.414-14.54 54.374-14.54 25.847 0 43.165 4.721 51.95 14.162 8.785 9.442 13.177 27.996 13.177 55.661v10.602h-97.994c-.203 3.232-.303 5.353-.303 6.361 0 14.237 2.196 23.729 6.589 28.474 4.392 4.747 13.151 7.119 26.278 7.119 12.722 0 21-1.387 24.839-4.165 3.836-2.776 5.755-8.759 5.755-17.948h34.836v5.604c0 28.273-21.204 42.408-63.613 42.408Zm29.08-89.058-.151-5.755c0-11.511-1.995-18.982-5.983-22.416-3.99-3.431-12.646-5.149-25.975-5.149-12.926 0-21.332 2.07-25.218 6.209-3.888 4.142-5.831 13.177-5.831 27.111h63.158Zm-334.155-19.68c6.764-12.429 23.678-19.093 50.739-19.093 26.555 0 44.68 4.217 54.374 12.647 9.693 8.432 14.54 24.21 14.54 47.331 0 26.758-5.202 44.782-15.601 54.07-10.401 9.291-30.594 13.934-60.583 13.934-36.956 0-60.181-5.476-69.671-16.433-9.492-10.954-14.237-37.687-14.237-80.197 0-52.504 4.264-84.564 12.798-96.176 8.532-11.61 32.185-17.418 70.958-17.418 28.271 0 47.76 3.888 58.463 11.662 10.702 7.777 16.055 21.962 16.055 42.56v5.453h-38.925l.152-4.695c0-9.694-2.173-16.029-6.513-19.009-4.343-2.977-13.532-4.468-27.565-4.468-20.398 0-33.12 1.946-38.168 5.832-5.05 3.888-7.573 13.657-7.573 29.307v34.693h.757Zm-1.666 39.673c0 16.864 2.322 27.364 6.967 31.503 4.644 4.142 16.358 6.21 35.139 6.21 17.971 0 29.205-1.841 33.699-5.528 4.492-3.685 6.74-12.95 6.74-27.793 0-14.033-2.196-22.818-6.588-26.354-4.393-3.533-15.274-5.301-32.64-5.301-18.478 0-30.317 1.643-35.517 4.923-5.201 3.282-7.8 10.73-7.8 22.34Zm-212.893 67.399 87.846-173.723h-114.352v-33.018h153.579v37.713l-83.302 169.028h-43.771Zm-148.07 1.817c-29.686 0-49.958-3.734-60.811-11.207-10.855-7.472-16.281-21.406-16.281-41.803v-7.119h38.167c0 13.128 2.121 21.181 6.362 24.158 4.24 2.98 15.548 4.468 33.926 4.468 19.891 0 31.982-2.068 36.275-6.21 4.29-4.139 6.437-15.851 6.437-35.138v-30.14h-.758c-6.565 13.532-22.416 20.295-47.558 20.295-28.273 0-47.231-3.961-56.872-11.889-9.644-7.926-14.465-23.5-14.465-46.725 0-27.161 5.074-45.438 15.222-54.828 10.148-9.391 29.963-14.086 59.447-14.086 38.267 0 61.921 5.453 70.959 16.358 9.035 10.905 13.555 39.481 13.555 85.725 0 49.78-4.316 80.249-12.95 91.405-8.633 11.159-32.184 16.736-70.655 16.736Zm37.562-173.117c-4.847-3.734-17.167-5.604-36.956-5.604-16.258 0-26.557 1.894-30.898 5.68-4.342 3.787-6.512 12.749-6.512 26.884 0 14.237 2.196 23.123 6.588 26.657 4.392 3.535 15.423 5.301 33.094 5.301 18.679 0 30.341-1.69 34.987-5.074 4.643-3.382 6.967-11.788 6.967-25.218 0-15.347-2.424-24.889-7.27-28.626Zm-230.312-1.211-53.767 53.313-23.325-25.293 66.793-62.25h49.527v206.741h-39.228v-172.511Z"/>
</svg>
