<svg xmlns="http://www.w3.org/2000/svg" version="1.1" xmlns:xlink="http://www.w3.org/1999/xlink" width="3388" height="3391"><svg xmlns="http://www.w3.org/2000/svg" version="1.1" xmlns:xlink="http://www.w3.org/1999/xlink" width="3388" height="3391"><svg xmlns="http://www.w3.org/2000/svg" width="3388" height="3391">
  <path fill="#2C4D7C" fill-rule="evenodd" d="M1694 .799c935.066 0 1693.088 758.744 1693.088 1694.701S2629.066 3390.201 1694 3390.201C758.933 3390.201.912 2631.457.912 1695.5S758.933.799 1694 .799Z"></path>
  <path fill="#7CC8EC" fill-rule="evenodd" d="M1694 118.1c869.848 0 1575 706.723 1575 1577.4 0 870.677-705.152 1575.6-1575 1575.6S118.1 2566.177 118.1 1695.5c0-870.677 706.052-1577.4 1575.9-1577.4Z"></path>
  <path fill="#FFF" fill-rule="evenodd" d="M2899.089 680.409c4.302 93.569 5.24 544.901-347.089 870.691-266.854 248.336-655.294 284.9-863.9 284.9-192.726 0-503.637 31.493-771.1 293.1-241.112 237.543-314.323 569.423-333.207 684.602a1585.365 1585.365 0 0 1-91.551-99.162c5.523-156.602 51.017-574.367 366.423-866.778 266.951-247.489 640.664-285.662 829.435-281.662 157.307 0 544.973-44.249 770-279 300.783-309.5 344.142-663.138 348.485-707.45a1585.574 1585.574 0 0 1 92.504 100.759Z"></path>
</svg></svg><style>@media (prefers-color-scheme: light) { :root { filter: none; } }
@media (prefers-color-scheme: dark) { :root { filter: none; } }
</style></svg>